<?xml version="1.0" encoding="UTF-8"?>
<svg width="193px" height="191px" viewBox="0 0 193 191" version="1.1" xmlns="http://www.w3.org/2000/svg" xmlns:xlink="http://www.w3.org/1999/xlink">
    <!-- Generator: Sketch 47.1 (45422) - http://www.bohemiancoding.com/sketch -->
    <title>Group</title>
    <desc>Created with Sketch.</desc>
    <defs></defs>
    <g id="Page-1" stroke="none" stroke-width="1" fill="none" fill-rule="evenodd">
        <g id="Group" transform="translate(-1.000000, -3.000000)">
            <circle id="Oval" cx="100" cy="100" r="100"></circle>
            <path d="M103.487364,14.1445867 C96.5851088,20.6455792 71.2732269,38.3094304 65.4919541,54.3633814 C62.8311774,61.752062 62.1216715,75.7398872 62.5436311,82.7834878 C64.4979395,115.405966 69.694228,141.172613 105.665777,149.011924 C112.004063,150.393232 125.699853,151.84527 132.544265,149.738661 C150.07875,144.341806 126.250228,108.305945 119.682454,102.592476 C104.415418,89.3113067 79.2450488,95.657454 63.42507,104.623383 C42.5753299,116.439916 41.7047182,138.978992 57.9259709,156.450188 C74.4285284,174.224365 111.706665,180.637917 134.34312,173.515923 C181.012838,158.832465 161.060972,109.335766 156.245976,74.4655834 C149.538078,25.8870169 166.643981,22.880399 117.696518,28.4688671 C90.5570514,31.5674556 63.4799944,35.3078886 36.5375878,39.8088475 C34.0367653,40.2266313 31.7063584,41.6007481 29.7127329,43.1673094 C21.3697398,49.7231092 20.010482,66.057531 33.0136314,67.0435086 C97.390648,71.9249643 115.078708,68.5980757 168.627493,81.0673804 C180.333032,83.7931179 188.301824,91.3304977 186.515305,104.159279 C183.064944,128.935901 117.204536,130.887116 111.589406,132.072108 C85.7854525,137.517661 72.0774465,147.660694 51.1712713,160.997693 C49.483687,162.07428 41.3577129,166.987596 37.8453552,164.003579 C30.154345,157.469478 22.0888949,146.546783 17.4427445,137.340954 C14.608398,131.725012 7.84375044,118.836116 9.58174922,110.66034 C12.4438317,97.1967257 22.8818931,93.6204368 35.1092971,94.150451 C46.5932396,94.6482389 58.1282035,95.1166897 69.4836128,96.9009 C101.759045,101.972153 142.022052,125.534982 144.440092,75.8632935 C144.6318,71.925208 144.227911,67.9306051 143.360779,64.0843926 C142.020004,58.1373112 140.61729,52.0779492 137.852686,46.6444956 C126.988534,25.2924848 98.0761613,10.6585185 74.7164813,17.3339561 C67.8379184,19.299626 53.1162322,30.9334596 62.000377,39.7332956 C74.6874072,52.2999286 106.298927,55.5846719 117.978938,59.6214339 C139.936187,67.2101408 146.776017,85.4944833 159.061183,102.371217 C164.85085,110.324766 197.611094,140.187937 171.511057,150.030075 C154.9769,156.264988 130.944729,154.082639 115.032414,155.235961 C92.2086231,156.890225 72.3089002,159.428496 51.8638304,144.538172 C39.1320494,135.265504 27.0822707,104.598637 35.5356257,89.4374516 C53.0882942,57.9565475 93.695345,89.8601272 117.137074,95.7658226 C124.286555,97.5669976 152.985867,109.676782 155.217031,91.5565025 C156.86391,78.1814574 146.76747,62.3715674 133.141485,60.5676315 C104.933501,56.8331935 39.9994956,63.3146109 20.2201763,86.5718759 C15.8346602,91.7285301 13.9124512,102.037996 18.3223845,107.962058 C36.9080244,132.928985 64.5097791,176.928737 99.6036369,185.82009 C102.822443,186.635604 106.277105,186.897982 109.551304,186.345355 C118.148438,184.894312 126.628747,182.645931 134.891771,179.864082 C151.393493,174.308572 151.216436,151.291168 149.070344,137.925582 C145.998951,118.797345 132.84798,96.8383143 122.630777,81.7419509 C115.373346,71.0187808 78.0499472,39.3785199 103.435198,23.2341998 C113.471221,16.8515652 120.038559,26.2378695 115.55768,35.5635503 C112.160366,42.6340964 109.02467,49.8989657 104.690798,56.437461 C89.1886634,79.8254725 70.8396295,99.1065267 58.4152594,123.99525 C57.9862224,124.854705 43.4625777,150.501106 50.9392191,157.543892 C57.1171949,163.363371 75.341771,148.808041 76.1375766,148.267198 C102.355531,130.449009 120.718689,101.724774 151.279338,90.0454645 C166.480579,84.2360329 189.767298,81.1658775 184.022092,105.485035 C179.117238,126.247029 155.531864,133.457299 138.397739,140.449375 C97.3138672,157.214839 53.0919398,140.710506 24.4906575,109.500079 C16.029396,100.266941 5.41401266,87.191071 7.05615714,73.3898682 C7.2355394,71.8822719 7.97255997,70.4184988 8.92516723,69.2363126 C22.3054284,52.6314004 68.7046945,57.5313011 83.4930937,57.3584746" id="Path-9" stroke="#739CFF" stroke-width="2"></path>
            <path d="M98.9130422,4 C87.0650021,42.7718702 79.5458949,61.8153235 74.268732,102.854265 C72.7908552,114.347277 61.975431,136.185706 73.475437,137.608139 L75.8679139,141.819258 C83.0361225,142.705891 90.3558829,141.636954 97.5009412,140.579847 C122.162071,136.931247 129.461988,113.216486 116.558009,92.6709478 C102.560315,70.3840129 57.6729813,61.2485059 37.7537792,79.8720962 C26.9514776,89.9717797 31.9254801,103.106515 46.4188625,103.814853 C63.2214295,104.636049 115.231555,102.362693 142.00101,108.475686 C150.866297,110.500136 163.925525,111.665675 167.348673,122.269304 C169.442184,128.754219 165.8735,132.620237 161.475412,136.622366 C140.17879,156.001655 125.345848,149.043022 97.479355,150.51672 C93.0038138,150.753406 88.6774761,152.357316 84.4592442,153.871584 C67.1629112,160.080653 75.091805,176.223648 90.89015,176.202568 C104.615957,176.184252 103.658835,168.148366 104.014594,155.335852 C104.151449,150.407094 103.783414,145.463345 103.215903,140.565456 C100.559163,117.636523 79.3131164,84.7595761 106.108461,68.4565638 C112.058806,64.8362133 118.196468,62.2901599 125.404776,63.9324441 C147.136576,68.8836462 129.061457,96.9788856 117.977305,103.276995 C109.098065,108.322256 99.4001943,111.846607 90.5951378,117.020246 C72.1219491,127.874646 19.2320352,161.460876 70.0522164,175.42906 C80.1983226,178.217769 90.4284334,180.847935 100.827024,182.457186 C108.121376,183.586035 115.562323,183.829853 122.940345,183.613849 C133.399533,183.307639 117.866549,152.964673 111.524813,147.915576 C88.967735,129.956319 20.069258,98.2040426 25.4280263,54.4003127 C25.7275581,51.9518752 26.4363299,49.2137161 28.2756134,47.5700612 C52.4052568,26.0068786 151.224014,44.101223 170.072139,47.0016231 C178.453345,48.2913456 186.379316,57.0406367 180.784319,65.3103669 C176.221192,72.054932 161.245972,71.9655322 154.177458,70.795075 C88.5451897,59.9271945 158.452967,65.6349609 73.8765816,58.8380874 C66.8053867,58.2698199 25.3710925,53.6522718 31.4829715,76.4758584 C32.1064626,78.8041609 38.4613992,80.110895 46.722869,80.7823167 C64.1797147,82.2010599 82.5962837,82.5216208 97.058423,71.314944 C109.541705,61.6416794 122.976461,31.0428975 131.466917,29.2397312 C133.096485,28.8936506 135.003881,28.5098625 136.464135,29.3116854 C156.989288,40.5820048 149.446219,62.6204242 151.266911,82.8024306 C153.319881,105.559196 156.335255,128.222164 159.340171,150.872894 C159.546692,152.429623 161.184799,152.684834 162.04385,151.55466 C165.909031,146.469599 169.955728,141.442708 172.959301,135.805686 C178.385534,125.621883 178.210996,112.924751 176.553413,101.994412 C175.550533,95.3812868 173.458559,88.8927059 170.689146,82.8042294 C169.229855,79.5960188 167.418273,75.6659908 164.072958,74.5564803 C156.616858,72.0835828 148.426101,72.7459336 140.570921,72.8151889 C136.781304,72.8486001 132.96717,73.6181588 129.387441,74.8622856 C117.17826,79.1055585 104.876001,83.3371797 93.367173,89.2207443 C74.3656994,98.9347137 56.1205046,110.104461 38.0973604,121.531774 C36.209153,122.728964 34.6259702,124.702429 34.0139601,126.852786 C25.3369331,157.34037 100.231965,157.835557 103.190719,158.411894 C121.71308,162.019872 121.781669,169.260783 144.425867,177.395208 C146.34514,178.084665 148.797582,176.361431 149.88719,174.637564 C162.948229,153.973703 137.617309,125.796697 129.896517,111.958269 C123.725207,100.897067 117.645953,89.7399646 112.625712,78.1110173 C111.066174,74.4984832 91.8750988,33.8122267 102.350654,22.6990953 C128.980845,-5.55189681 165.603882,37.496348 128.403467,38.6981095 C124.043148,38.8389698 119.618938,38.7916587 115.336586,37.9587802 C92.4105176,33.4998678 78.278286,25.756328 56.4366847,27.6999115 C54.6978326,27.8546439 52.7903436,28.7858994 51.874789,30.2722738 C51.0323137,31.6400064 51.146527,33.6642021 51.8837833,35.0914057 C59.463117,49.7637148 99.6888342,42.1707961 83.8710187,16.0091544 C77.8166796,5.99566994 41.9879037,13.909828 60.2844351,23.0462742 C87.468106,36.6205492 135.580876,15.3997775 154.55162,45.5391542 C155.943812,47.7509711 157.009995,50.3032115 157.231914,52.9072633 C157.508883,56.1572833 157.357179,59.6464957 156.006894,62.6156824 C153.383295,68.3847959 138.332821,73.1048255 135.620472,73.6264724 C45.5329999,90.9523584 102.511673,71.9337012 28.8746321,96.0222142 C22.0617218,98.2508871 11.5482436,101.879624 13.1670323,111.48517 C13.5220448,113.591738 14.766587,115.883626 16.6712013,116.851153 C21.3681233,119.237148 31.6766933,118.116056 36.0736488,115.890565 C59.8120175,103.875544 39.1419017,67.2575082 24.6509211,84.110198 C20.6244241,88.7929248 17.7622345,94.6935228 18.7794591,101.017634 C19.0385302,102.628285 19.8992095,104.370492 21.2942581,105.216161 C33.8073053,112.801482 46.4386472,120.411289 59.9678366,125.985738 C82.0217113,135.072624 118.257844,141.183175 142.085556,133.513945 C159.443585,127.927059 170.626224,111.694064 186.765511,103.674542" id="Path-10" stroke="#057600" stroke-width="2"></path>
            <path d="M79.4638485,9.12232718 C88.3555876,9.405347 97.4118693,8.24536022 106.139066,9.97138663 C126.463383,13.9910405 174.072117,57.8917418 151.673476,81.6449558 C136.671784,97.5538859 109.227293,94.4914716 93.4805248,110.417638 C83.6977048,120.31191 78.1581003,147.860054 99.0551757,149.040848 C119.505395,150.196393 124.747623,120.430448 122.301776,105.954679 C118.734075,84.8392135 93.8715404,55.826339 74.2219857,48.3715392 C57.8015196,42.141816 42.399778,65.468531 38.5435004,77.9087344 C37.7141727,80.5841135 32.4343636,100.523226 39.6911697,101.912652 C56.1495693,105.063864 64.7927998,57.3698417 30.1374521,69.517077 C25.188732,71.2516799 20.996375,74.7265959 16.8421165,77.926723 C13.5252324,80.4818001 13.1365736,87.8218352 13.0249467,90.6356319 C12.2647268,109.798618 29.013791,110.808454 44.9024519,108.446093 C86.8633052,102.20726 108.28857,56.8521726 146.703241,41.4279599 C151.085529,39.6683887 155.869277,37.5169143 160.523842,38.3141423 C179.011145,41.4806243 185.251491,93.6572988 160.155077,87.3815036 C128.074028,79.3590791 112.587412,41.698247 77.4545277,37.3931286 C73.2075554,36.8727125 68.6379261,35.6320138 64.6214978,37.1071107 C58.7265483,39.2721243 56.0160882,49.41898 57.7013036,54.5398122 C63.244838,71.3848458 72.3003249,86.9255764 77.9725979,103.727697 C84.3744799,122.691028 81.5693617,154.418949 108.117806,158.412882 C112.018881,158.999757 116.044302,159.027838 119.952471,158.490232 C139.004287,155.869477 143.185803,155.157161 156.069877,140.296615 C162.135721,133.300246 166.281635,124.825712 171.951966,117.505125 C173.847136,115.058398 175.946673,112.558771 178.679683,111.106599 C179.481603,110.680503 180.857902,111.886686 180.818521,112.793925 L181.485896,116.769394 C181.237989,122.480541 175.954056,129.714209 179.904703,133.845922 C180.178018,134.131763 197.248913,109.469671 191.080988,129.239055 C189.588283,134.023461 187.505653,138.621383 185.261692,143.102829 C183.960244,145.701969 182.410547,148.220822 180.485733,150.398984 C177.589409,153.676527 174.614952,157.05206 170.897837,159.35728 C166.578057,162.036252 161.806754,164.396797 156.77323,165.104621 C151.935252,165.784947 107.010358,155.827665 113.908319,177.432173 C114.224222,178.421584 115.855783,178.267179 116.89262,178.328003 C120.697926,178.551233 127.329537,171.63905 121.233256,171.168561 C106.210949,170.009193 90.8125094,172.309404 76.076605,169.168234 C65.0505772,166.817878 33.6223398,154.489406 39.3170079,135.941588 C45.7956181,114.840431 116.614748,116.015054 127.764898,114.044129 C137.361719,112.347773 165.605417,107.297396 163.330055,90.4863269 C162.99193,87.9881572 161.988326,85.4975187 160.469876,83.4851842 C158.557536,80.9508447 155.960902,78.9504898 153.308635,77.2053822 C150.762321,75.5299883 147.928809,74.2627535 145.028507,73.3252525 C139.594499,71.5687498 134.066833,69.9458198 128.410687,69.157306 C110.99968,66.7300672 93.3754837,66.0622158 75.9560817,63.6959829 C71.0011638,63.0229122 66.0779874,61.8304795 61.4033467,60.0551009 C59.5310452,59.3440208 57.7345636,58.0574071 56.6597667,56.3674486 C55.7410242,54.9228626 55.7659361,53.0089107 55.8340923,51.2982759 C55.9082852,49.4361302 56.2222982,47.5028366 57.0788998,45.847746 C59.696592,40.7899484 62.328077,35.5920652 66.1487255,31.368764 C69.009096,28.2069432 72.7807625,25.8099636 76.708003,24.1499599 C84.3311103,20.9277517 92.3633201,18.6521528 100.44569,16.8717935 C107.147983,15.3954334 114.040241,14.8766958 120.887876,14.4181556 C124.847243,14.1530233 128.869955,14.083723 132.789099,14.7059724 C156.452791,18.4630985 131.677888,39.5324585 126.590246,46.1931261 C125.299843,47.8825021 122.228652,51.9457417 124.343476,52.1617262 L124.974874,56.1605804 C139.561444,57.6502902 154.345639,55.5154986 168.958672,56.7182253 C172.508884,57.0104258 175.797475,58.8772642 178.915333,60.6001539 C203.966874,74.4433259 156.623213,89.3862156 150.952136,92.3661301 C146.651041,94.6261755 143.129487,98.4330868 141.948867,103.259995 C137.153069,122.867394 183.883462,96.3958398 179.147385,125.702507 C178.540258,129.459387 170.27489,128.453767 169.689007,128.224501 C163.555151,125.824219 158.891275,120.379517 152.698824,118.134725 C136.0777,112.10949 112.086113,106.9581 93.4211626,106.915267 C81.8123279,106.888628 70.0810541,106.846938 58.6493,108.867025 C54.4965903,109.600844 50.8291988,112.311426 47.5917398,115.013712 C40.0213513,121.332665 44.7539184,130.557791 53.3822533,131.455244 C53.4667273,131.46403 87.4943785,128.038146 81.2339216,142.66031 C80.176903,145.129124 69.8450055,152.493893 73.1246843,154.683856 C79.7563323,159.112053 90.2460353,160.90488 97.8067705,158.542399 C101.550342,157.372656 104.990273,154.640046 107.112246,151.341584 C123.905877,125.237022 64.2368302,57.9681727 62.3333546,55.2323713 C56.7759649,47.2449221 53.1946346,39.0573965 42.7546194,44.4752198 C41.0083536,45.3814406 39.6842982,47.7035221 39.9268197,49.6559215 C40.069402,50.8037691 42.3219224,50.0723275 43.3968105,49.6451284 C46.9087907,48.2493414 50.5388581,46.77544 53.3966441,44.3025298 C60.3960422,38.2457843 62.0694364,33.8230995 60.6226437,25.0745712 C60.2516668,22.8313319 59.3137185,20.5631282 57.8038383,18.8631257 C56.2628543,17.1281028 51.6373822,20.1403102 48.5487305,22.6856921 C37.8511653,31.501639 58.2771716,29.1549826 61.2054727,28.6614876 C64.8678982,28.0442735 68.1322627,25.9787955 71.5956578,24.6374495" id="Path-11" stroke="#AA4F98" stroke-width="2"></path>
            <path d="M104.356051,8 C99.2688902,8.47909498 94.1343992,8.59535885 89.0945677,9.43728495 C83.7666958,10.3273295 51.8257527,22.4945666 76.0564684,23.8551059 C95.7617583,24.9615454 120.488071,21.44854 139.719737,29.0412042 C140.422335,29.3185897 140.985414,31.0474442 140.255796,31.2430024 C112.273849,38.7429485 72.3287211,24.7295516 52.3367695,41.6134001 C44.6507006,48.1045334 71.3139102,60.6662083 77.9218808,61.9080795 C100.491796,66.1497643 123.306167,68.9995933 145.898803,73.1185424 C150.711501,73.9959636 155.549845,75.0474443 160.082773,76.8871431 C162.438318,77.8431461 165.473707,78.9555444 166.247448,81.3770846 C166.881538,83.3615639 164.904296,85.5773995 163.273942,86.8743847 C160.336865,89.2108974 156.820732,91.0244588 153.148188,91.7978502 C134.477519,95.729658 115.694138,99.9666174 96.6371657,100.907251 C66.1597771,102.411585 35.6235827,98.7265049 5.11143541,99.1047983 C3.90909585,99.119705 3.27056814,100.884827 3.05354556,102.067512 C1.41914334,110.974341 12.8215414,119.165806 19.4285205,122.214685 C47.4063033,135.125412 78.1470721,136.921746 107.867416,142.81517 C108.759195,142.992006 129.908102,152.495296 137.005265,146.957933 C146.990012,139.167614 135.022188,72.3744814 132.527916,60.4024381 C131.88696,57.3259701 132.038896,50.7715207 129.021948,51.6510097 C122.88983,53.4386205 119.561564,60.3182387 115.607888,65.3348978 C89.2014534,98.840953 114.262991,113.377814 137.143777,136.771018 C142.20957,141.95026 160.116821,152.203564 155.279831,163.942719 C154.364297,166.164679 152.430628,168.067384 150.277216,169.134214 C119.042894,184.60813 77.2497126,160.942878 45.1197642,166.687772 C33.5014578,168.765146 53.7539529,178.368491 54.6680852,178.680736 C61.1117992,180.88175 67.585066,183.043021 74.1928548,184.687112 C94.1320041,189.648195 119.427188,182.617121 139.365363,179.432658 C145.874003,178.393118 152.381117,177.023019 158.593321,174.820394 C160.961365,173.980771 162.955012,172.220964 164.727416,170.440183 C166.556073,168.602883 168.191861,166.48016 169.249737,164.113611 C171.921539,158.136584 174.318284,151.977525 175.828149,145.606993 C176.560791,142.515773 176.22599,139.236195 175.894707,136.07666 C173.265469,111.000931 153.640859,153.219549 178.63796,129.546817 C180.607224,127.681887 182.190145,125.379813 183.413919,122.959411 C194.084936,101.854095 176.46497,69.5871234 169.629295,52.8634378 C156.043659,19.6257643 104.966005,10.5954518 73.2916286,19.0917385 C54.3388871,24.175593 35.5680757,37.1892469 21.1662142,49.7855973 C17.922986,52.6222332 10.5964237,71.2908055 16.6798704,74.3201774 C25.1466768,78.53639 42.7551456,61.3473184 41.5202558,53.0559152 C41.2808321,51.4483558 23.5625815,64.7565043 37.3702979,67.500719 C41.3092611,68.2835682 45.3821425,68.5171108 49.3920442,68.2958128 C55.3077484,67.9693374 61.2840474,67.4272186 66.9992346,65.86556 C71.4593135,64.6468561 75.6886609,62.5267285 79.5894191,60.044466 C81.372532,58.9097752 85.8251937,55.3323277 83.7141931,55.2289318 C77.305091,54.9150166 61.2945424,70.4734608 86.193015,70.4580362 C92.4102432,70.4541846 98.6547286,70.1740861 104.807564,69.2815852 C108.374372,68.764201 111.939899,67.8164206 115.186956,66.2523138 C118.433755,64.6883312 121.450483,62.54678 124.024729,60.0246786 C125.117305,58.954235 125.570524,57.316794 125.843372,55.8117607 C126.457408,52.4247164 111.533758,59.5435193 121.234706,65.8026001 C132.831686,73.2850069 157.526644,75.2982319 170.314659,69.5909882 C172.163682,68.7657762 174.823178,63.7586848 175.038452,65.7720195 C175.349466,68.6807609 169.640128,88.6747701 170.919074,99.9196795 C171.344565,103.66073 174.767239,107.393139 173.462655,110.925073 C172.412917,113.767054 168.313398,114.40875 165.344423,115.012071 C155.395744,117.033728 145.25692,118.27268 135.114669,118.717712 C116.809323,119.520931 91.0667891,119.723572 77.9974327,103.848378 C68.3195646,92.0927858 66.634656,69.7331901 80.6093698,59.7746378 C90.1295554,52.9904367 98.9838417,66.5616416 99.1177864,74.597201 C99.38841,90.8323533 96.662407,98.9257276 88.7725727,114.035293 C83.5848942,123.970047 46.4625606,135.298849 63.2594156,152.36529 C72.7502429,162.008443 87.4708925,160.539419 99.4056032,162.428084 C120.473377,165.762052 104.473196,197.566576 83.4857385,175.14059 C66.2403647,156.713178 65.482825,114.593347 36.0301511,112.83006 C33.5603663,112.682198 31.1642683,113.958774 28.9534564,115.069634 C26.8538186,116.124633 25.0093521,117.660294 23.2708742,119.241178 C21.8331093,120.54861 20.4690751,121.999714 19.4878827,123.677154 C18.3592182,125.606712 17.1417338,127.683112 17.0270494,129.915583 C16.874084,132.893237 17.0200701,136.247237 18.716174,138.69939 C29.5441105,154.353951 57.4318899,153.641772 72.8635012,152.228577 C78.2563174,151.734714 94.9486576,151.028737 93.8057683,140.967746 C92.9599986,133.522335 78.9583925,132.760374 75.2487826,132.827928 C54.4826059,133.206096 22.7400542,160.092724 46.9150212,179.596353 C79.0398424,205.513684 140.785443,189.918778 145.074928,145.115905 C149.009803,104.016868 126.921382,75.1484366 100.27445,46.977585" id="Path-12" stroke="#5A0896" stroke-width="2"></path>
            <path d="M79.8416305,8 C57.7140909,12.6364473 38.3347415,19.6082124 25.3795038,40.0322067 C16.4362153,54.1313438 21.159177,86.4559976 37.7106532,93.794579 C77.3687013,111.378135 112.120321,70.8535166 150.142673,72.292868 C173.267836,73.1682804 186.131704,77.8060228 187.395157,102.360725 C187.700404,108.293077 184.825789,116.686358 180.131381,120.601113 C174.894246,124.968458 168.707685,128.091186 162.6663,131.253931 C143.737526,141.163393 124.07116,149.637687 105.27204,159.790963 C102.078355,161.51585 97.5222642,165.818924 96.6393363,169.970682 C96.4529867,170.846946 96.3851103,172.102118 97.1196305,172.614998 C98.4204889,173.523325 100.222428,173.843335 101.784061,173.562995 C110.405381,172.015315 120.967677,160.970386 125.170972,156.707725 C160.411168,120.969809 135.556513,94.5577347 111.094933,61.134572 C91.9748258,35.0097479 91.3345798,10.631015 134.019538,17.7156146 C162.796314,22.4918154 164.698974,39.5506008 141.1484,51.1689166 C133.571833,54.9066999 125.895495,58.5888735 117.826248,61.0913994 C100.796265,66.37293 39.4103137,71.3099249 23.0176075,99.1803502 C21.2962424,102.106967 20.243125,105.869139 21.0334707,109.17119 C21.8752957,112.68832 24.4923688,115.870868 27.494957,117.886641 C33.6195647,121.998367 43.8864514,122.009224 50.7379593,120.933901 C103.1341,112.71049 80.9590358,67.393354 69.2967439,32.2827404 C67.3983557,26.5674336 34.9532653,52.9111121 52.8983839,68.1896803 C57.5994991,72.1922345 62.7707237,75.7302878 68.2965807,78.4845261 C72.2195079,80.4398204 76.5753998,81.5981918 80.9227423,82.1577876 C89.2831541,83.2339509 97.7753153,83.9759418 106.182261,83.3612214 C126.415491,81.8817567 146.314089,76.7276975 166.584206,75.8941753 C170.543672,75.7313591 174.392532,78.0644626 177.575209,80.4254904 C180.6853,82.732672 183.488431,85.847236 184.874961,89.4629368 C189.578244,101.727842 165.140311,117.765734 156.866793,120.847556 C138.83535,127.564128 135.351348,122.982541 113.17261,124.92556 C99.0183579,126.165575 61.4864502,139.253421 55.8682931,141.178212 C18.4118896,154.010844 37.2049807,165.076299 64.8481761,171.085972 C76.337036,173.583667 88.3413149,173.766246 99.5858604,177.200279 C108.194575,179.829341 115.345121,186.085298 123.827227,189.097904 C128.222721,190.65906 133.099762,191.361879 137.72338,190.745655 C148.248355,189.342914 153.863547,178.555806 156.105877,169.490387 C162.968728,141.744862 133.074777,126.462711 113.836388,115.181163 C108.85517,112.260137 101.666734,102.738957 98.3320586,107.453283 L94.2216755,108.27536 C90.9173618,112.946763 88.7996163,118.392824 86.8013996,123.754505 C85.1980108,128.056771 84.1778226,132.583283 83.4717194,137.119996 C76.4147449,182.461058 124.928059,140.261315 147.413811,137.359244 C150.449873,136.967401 153.627617,136.964431 156.589769,137.737003 C164.614931,139.830082 171.89752,147.116859 180.099002,145.884016 C186.250745,144.95929 180.45451,126.145779 179.611512,124.319345 C174.691792,113.660315 160.816885,102.506724 148.60825,102.450668 C105.313479,102.25188 69.8997362,119.642101 30.1536643,133.684183 C17.082477,138.302166 14.7683125,100.137306 27.1297894,105.064404 C29.3833634,105.962645 30.9215956,108.172123 32.3590602,110.126381 C41.4405831,122.472874 49.1058933,135.853021 58.6169432,147.871751 C61.3899858,151.375933 65.2401819,153.927146 68.9693524,156.389328 C73.5001182,159.380764 78.5128765,161.568831 83.2846386,164.158582" id="Path-8" stroke="#D52A2A" stroke-width="2"></path>
            <path d="M113.525176,13.9446618 C101.735482,18.0244644 89.7364172,21.5431883 78.1560934,26.1840696 C72.5577344,28.4276441 66.9782366,30.9855938 62.1121078,34.5487442 C54.1026963,40.4135166 51.9173724,47.0130495 51.3693472,56.6512727 C49.7612962,84.9323685 73.0774707,87.2242554 93.6766123,97.9205986 C99.6948816,101.045655 107.542699,108.152567 110.963607,114.326154 C114.261112,120.277043 114.265286,127.698091 113.742837,134.174717 C111.988191,155.926483 98.4570969,153.770421 80.8453813,157.770295 C72.9700075,159.558906 75.3057345,162.523717 67.6291954,161.089182 C65.6109935,160.712036 63.6160972,159.933142 61.9214292,158.774056 C54.3686778,153.608276 46.4715722,148.710257 40.0293668,142.212001 C33.5237785,135.64981 29.2804638,127.164872 23.4655121,119.983552 C19.5411662,115.137083 14.4290271,111.276314 10.846546,106.171945 C3.94802158,96.3428316 18.0252292,82.4329233 26.0144893,79.4085843 C56.2208968,67.9739315 96.3323711,82.2531362 121.79631,57.9284596 C122.918718,56.8562684 123.565637,55.2674571 123.825418,53.737128 C124.096684,52.1391443 124.088036,50.3321045 123.328934,48.9000075 C113.032012,29.4741555 79.2351844,27.6609404 61.0561801,27.5152221 C51.5880274,27.4393277 36.2123709,29.2998329 37.0234805,41.7621518 C37.7936082,53.5948048 54.607474,56.9344855 63.3137428,57.4391711 C90.8864489,59.0375074 113.751277,57.5607153 140.241767,61.8607561 C149.76374,63.4064003 170.895788,66.8743099 170.942821,80.1766952 C170.952404,82.8872161 169.696009,85.1744954 166.659748,84.9904306 C154.151002,84.2321229 141.741234,82.2116661 129.234574,81.4197039 C113.956402,80.4522405 91.3396805,87.6311775 87.6324603,104.855184 C87.0671845,107.481495 86.3396276,110.67375 87.8249378,112.912254 C91.8491596,118.977141 120.797816,102.765977 124.224764,91.6749749 C127.313019,81.6801203 132.026214,35.9718621 152.725819,41.7585541 C156.988768,42.9502859 159.613391,54.4741121 158.892293,57.1729406 C148.705651,95.2981007 145.200677,75.1787344 146.172591,104.101464 C146.200649,104.936436 146.750992,105.796753 147.44618,106.260089 C148.037724,106.654348 148.9435,106.694285 149.576024,106.369819 L160.182072,101.692797 C175.789152,93.6868342 184.65519,79.3148902 175.663016,62.7709766 C172.81493,57.5310336 163.208916,71.2351442 162.560158,72.5423556 C160.790897,76.1073174 159.500129,79.9569342 158.80235,83.8751406 C155.043092,104.984336 168.194209,114.43451 175.610849,132.354276 C179.263561,141.179802 174.4201,151.420582 164.492128,151.58943 C150.862872,151.821228 139.393038,132.879892 133.346756,121.802194 C131.702243,118.789198 132.833897,113.61865 129.725662,112.162132 C122.373859,108.717078 118.299339,130.294773 120.092795,135.142501 C120.720167,136.838296 121.267814,139.05959 122.933186,139.763759 C138.44487,146.322562 163.720366,120.868975 181.318615,122.568507 C190.748744,123.479211 187.005938,136.38418 181.915835,140.033587 C177.435279,143.245974 139.816014,143.553028 132.044386,140.316008 C112.229076,132.062581 92.3588918,123.904665 72.1784991,116.589113 C66.6201198,114.574157 60.7896855,113.298424 54.950867,112.369 C51.8686559,111.878373 48.6517501,111.762168 45.587828,112.356408 C43.0957502,112.83974 40.5597672,113.839516 38.664036,115.527789 C36.7759453,117.209257 35.5997777,119.640838 34.7389349,122.018057 C34.2745515,123.300453 34.4435288,124.801399 34.8324754,126.108653 C37.8624385,136.292392 71.9782872,125.347916 64.3948545,106.565895 C55.2245149,83.8535535 38.021292,114.33462 45.116528,126.452234 C77.6632631,182.037243 49.8694962,113.992886 69.8615741,153.559176 C72.582713,158.944578 74.9169192,164.632312 76.1161921,170.545762 C77.1158832,175.475101 73.5572433,181.460545 76.3662329,185.632757 C78.2900358,188.490194 95.8541799,184.385059 97.2185574,183.995799 C109.675253,180.441879 112.742425,164.330918 107.889364,153.548383 C107.692672,153.111374 98.0999139,139.294857 93.804331,141.492459 C86.3780016,145.291737 83.1443457,158.812668 90.22461,164.301937 C104.693884,175.519843 128.449017,176.986123 145.785837,176.95688 C151.202021,176.947745 160.327636,180.406821 161.943151,175.237175 L163.637672,173.657781 C167.91419,159.972922 148.518901,149.017727 137.160328,152.15607 C112.404308,158.996092 110.372458,199.174356 142.540703,178.678384 C161.792506,166.412114 163.906503,141.069709 155.996137,121.03948 C145.074226,93.3835709 102.191935,47.6052991 69.3884753,51.0262538 C52.8389056,52.7521489 25.940765,81.111929 39.3152214,97.8684318 C46.6995192,107.120023 65.7303325,88.5888657 50.7019721,77.8004081 C48.6060064,76.2957705 45.8946067,72.7251133 43.8195537,74.2584631 C27.5013789,86.3166955 38.0431018,98.1472278 51.7974746,95.8770996 C73.8699786,92.2340826 86.5775022,57.3194482 112.005143,73.9778417 C118.310553,78.1087006 111.580613,93.7178052 108.222152,97.8828227 C97.1681374,111.591532 77.1793628,102.861412 65.9094902,117.729587 C63.7500186,120.578546 59.47909,130.816071 63.1680356,134.977007 C69.5896969,142.220302 83.0185432,140.644445 76.513739,150.346422 C69.7656409,160.411274 56.7487108,163.548266 45.6921615,166.111585 C43.6718076,166.579978 41.4939715,165.082142 39.964608,163.681332 C37.0104285,160.975471 34.3006104,157.799342 32.6378725,154.154597 C11.1113097,106.968073 57.3300257,70.8279284 91.6600961,50.4524192 C98.8268326,46.1988332 106.185049,42.214044 113.825585,38.885783 C123.01801,34.8815099 136.816908,38.115462 128.327952,24.6964167 C126.536967,21.8652912 123.475102,19.9645334 120.549704,18.3320685 C116.801842,16.240643 112.745676,14.5704418 108.551342,13.6604427 C93.0413278,10.2954025 82.7118044,20.4853813 97.5675352,28.4937991 C113.550626,37.1099535 135.137135,38.9993536 150.864004,43.7480875 C157.017528,45.6061462 162.847715,53.1196661 158.266291,59.4628827 C144.07371,79.1132402 117.480455,34.6613858 111.584211,76.0789041 C111.065128,79.7251502 111.18461,83.518199 111.943982,87.1220735 C115.568901,104.325416 141.163982,105.736608 154.393357,104.024113 C158.194447,103.532075 161.450922,99.475831 165.222463,100.158374 C167.176245,100.511954 165.947758,104.107804 165.794499,106.087399 C165.683233,107.524573 165.179602,108.955526 164.445358,110.195984 C162.906829,112.795226 161.365999,115.536009 159.052391,117.477748 C155.519659,120.442659 151.557994,123.08181 147.221323,124.65158 C134.867905,129.12322 122.912221,120.601955 115.154938,112.214299 C98.984272,94.7295682 105.961811,74.2383885 98.0370363,65.2066259 C74.5150036,38.3988724 41.3316031,75.6686099 46.0159554,102.021987 C52.2188386,136.918365 116.429093,121.710647 135.255341,105.760008 C151.323529,92.1461493 150.442887,85.4143956 168.742822,82.2921484 C176.065973,81.0427074 193.95455,105.707417 190.714034,108.967366 C184.036413,115.68503 168.175354,116.827023 166.481661,106.107187" id="Path-13" stroke="#FFC100" stroke-width="2"></path>
        </g>
    </g>
</svg>